<svg xmlns="http://www.w3.org/2000/svg" viewBox="0 0 48 48">
  <path d="M 8 0 H 40 A 8 8 0 0 1 48 8 V 40 A 8 8 0 0 1 40 48 H 8 A 8 8 0 0 1 0 40 V 8 A 8 8 0 0 1 8 0 Z" fill="#fafafa"></path>
  <path d="M 6.897 21.421 C 8.741 21.421 9.891 23.416 8.969 25.013 C 8.544 25.754 7.753 26.211 6.897 26.211 C 5.051 26.211 3.901 24.215 4.822 22.619 C 5.249 21.878 6.04 21.421 6.897 21.421 Z M 19.734 11.445 C 20.973 11.917 21.592 13.302 21.115 14.538 L 14.962 30.564 C 14.301 32.286 12.024 32.647 10.864 31.213 C 10.325 30.547 10.184 29.646 10.49 28.847 L 16.641 12.821 C 17.113 11.584 18.5 10.968 19.734 11.445 Z M 31.216 6.347 C 32.451 6.819 33.071 8.208 32.594 9.443 L 21.005 39.627 C 20.346 41.348 18.07 41.71 16.909 40.278 C 16.37 39.612 16.228 38.711 16.535 37.911 L 28.123 7.726 C 28.595 6.486 29.98 5.872 31.216 6.347 Z M 36.596 17.66 C 37.833 18.133 38.45 19.522 37.973 20.756 L 32.966 33.799 C 32.305 35.52 30.029 35.882 28.868 34.449 C 28.329 33.782 28.188 32.882 28.492 32.084 L 33.5 19.04 C 33.972 17.802 35.362 17.184 36.596 17.66 Z M 42.107 21.311 C 43.951 21.311 45.102 23.308 44.18 24.904 C 43.753 25.647 42.963 26.103 42.107 26.103 C 40.263 26.103 39.11 24.105 40.032 22.509 C 40.46 21.769 41.252 21.311 42.107 21.311 Z" fill="#000"></path>
</svg>
