<svg xmlns="http://www.w3.org/2000/svg" viewBox="0 0 48 48">
  <path d="M 8 3.7 H 36.3 A 8 8 0 0 1 44.3 11.7 V 40 A 8 8 0 0 1 36.3 48 H 8 A 8 8 0 0 1 0 40 V 11.7 A 8 8 0 0 1 8 3.7 Z" fill="#fafafa"></path>
  <path d="M 6.365 23.47 C 8.067 23.47 9.129 25.311 8.278 26.785 C 7.885 27.469 7.155 27.891 6.365 27.891 C 4.662 27.891 3.6 26.048 4.45 24.575 C 4.844 23.892 5.574 23.47 6.365 23.47 Z M 18.213 14.263 C 19.356 14.698 19.928 15.977 19.487 17.117 L 13.809 31.908 C 13.199 33.497 11.097 33.83 10.027 32.507 C 9.529 31.892 9.399 31.061 9.681 30.323 L 15.358 15.533 C 15.794 14.391 17.074 13.823 18.213 14.263 Z M 28.81 9.558 C 29.95 9.993 30.522 11.275 30.082 12.415 L 19.386 40.272 C 18.778 41.861 16.677 42.195 15.606 40.873 C 15.108 40.259 14.977 39.427 15.26 38.689 L 25.955 10.83 C 26.391 9.686 27.669 9.119 28.81 9.558 Z M 33.775 19.999 C 34.917 20.435 35.486 21.717 35.046 22.856 L 30.425 34.894 C 29.815 36.482 27.714 36.816 26.643 35.494 C 26.145 34.878 26.015 34.047 26.296 33.311 L 30.918 21.272 C 31.353 20.13 32.636 19.559 33.775 19.999 Z M 38.861 23.368 C 40.563 23.368 41.625 25.211 40.774 26.684 C 40.38 27.37 39.651 27.791 38.861 27.791 C 37.159 27.791 36.095 25.947 36.946 24.474 C 37.341 23.791 38.072 23.368 38.861 23.368 Z" fill="#000"></path>
  <path d="M 48 8.1 C 48 12.575 44.385 16.2 39.923 16.2 C 35.462 16.2 31.846 12.575 31.846 8.1 C 31.846 3.626 35.462 0 39.923 0 C 44.385 0 48 3.626 48 8.1 Z" fill="#ffdf20"></path>
</svg>
